<svg width="24" height="24" viewBox="0 0 24 24" xmlns="http://www.w3.org/2000/svg" fill="currentColor">
  <path
    d="m7.945 1.827 -0.113 0.422 -0.202 0.754 -1.638 -0.438 -0.158 0.587 -1.254 -0.335 -0.227 0.845 1.255 0.337 -0.135 0.499 1.638 0.438 -0.574 2.143 -1.638 -0.438 -0.155 0.576 -1.254 -0.335 -0.227 0.847 1.254 0.335 -0.136 0.511 1.638 0.438 -0.587 2.189 -1.636 -0.438L3.656 11.285l-1.255 -0.337 -0.227 0.845 1.255 0.337 -0.152 0.567 1.636 0.438 -0.563 2.098 -1.636 -0.438 -0.135 0.504 -1.255 -0.337 -0.226 0.845 1.254 0.335 -0.157 0.587 1.636 0.438 -0.21 0.782 -0.113 0.423 0.423 0.113 11.946 3.201 0.423 0.113 0.113 -0.423 0.209 -0.781 1.632 0.437 0.157 -0.586 1.267 0.34 0.227 -0.845 -1.267 -0.34 0.135 -0.504 -1.632 -0.436 0.563 -2.098 1.632 0.436 0.152 -0.567 1.267 0.34 0.226 -0.845 -1.267 -0.34 0.141 -0.523 -1.632 -0.437 0.586 -2.187 1.632 0.437L20.578 12.368l1.267 0.34 0.227 -0.847 -1.267 -0.34 0.154 -0.577 -1.63 -0.437 0.574 -2.143 1.63 0.437 0.133 -0.498 1.268 0.34 0.227 -0.847 -1.269 -0.34 0.158 -0.59 -1.63 -0.437 0.202 -0.753 0.114 -0.423 -0.423 -0.114 -11.946 -3.199 -0.423 -0.113zm0.618 1.072L19.665 5.873l-3.983 14.855L4.582 17.754zM17.591 6.224 14.32 18.432l-8.218 -2.203 -0.227 0.847 8.643 2.316 0.422 0.113 0.114 -0.423 3.384 -12.63 -0.847 -0.227z" />
</svg>